<svg viewBox="0 0 109 143" xmlns="http://www.w3.org/2000/svg"><g fill-rule="nonzero" fill="none"><path d="M9.2.6h47.6c6.80003 0 13.36664.66666 19.7 2 6.33337 1.33334 11.89998 3.56665 16.7 6.7s8.63332 7.3333 11.5 12.6c2.86668 5.2667 4.3 11.8333 4.3 19.7 0 8.93338-1.53332 16.1333-4.6 21.6-3.06668 5.4667-7.19997 9.69998-12.4 12.7-5.20003 3.00001-11.2333 5.03333-18.1 6.1-6.8667 1.06667-14.0333 1.6-21.5 1.6h-18v58.6H9.2V.6zM49.6 62c3.60002 0 7.33331-.13333 11.2-.4 3.86669-.26667 7.43332-1.06666 10.7-2.4 3.26668-1.33334 5.93332-3.33332 8-6s3.1-6.39998 3.1-11.2c0-4.40002-.93332-7.89999-2.8-10.5-1.86668-2.60001-4.26665-4.6-7.2-6-2.93335-1.4-6.19998-2.3-9.8-2.7-3.60002-.4-7.06665-.6-10.4-.6h-18V62h15.2z" fill="#BAA0E4"/><path d="M.2.6h47.6c6.80003 0 13.36664.66666 19.7 2 6.33337 1.33334 11.89998 3.56665 16.7 6.7s8.63332 7.3333 11.5 12.6c2.86668 5.2667 4.3 11.8333 4.3 19.7 0 8.93338-1.53332 16.1333-4.6 21.6-3.06668 5.4667-7.19997 9.69998-12.4 12.7-5.20003 3.00001-11.2333 5.03333-18.1 6.1-6.8667 1.06667-14.0333 1.6-21.5 1.6h-18v58.6H.2V.6zM40.6 62c3.60002 0 7.33331-.13333 11.2-.4 3.86669-.26667 7.43332-1.06666 10.7-2.4 3.26668-1.33334 5.93332-3.33332 8-6s3.1-6.39998 3.1-11.2c0-4.40002-.93332-7.89999-2.8-10.5-1.86668-2.60001-4.26665-4.6-7.2-6-2.93335-1.4-6.19998-2.3-9.8-2.7-3.60002-.4-7.06665-.6-10.4-.6h-18V62h15.2z" fill="#733DC8"/></g></svg>